<svg id="Ebene_1" data-name="Ebene 1" xmlns="http://www.w3.org/2000/svg" viewBox="0 0 1333.04 431.58"><defs><style>.cls-1{fill:#fb4226;}.cls-2{fill:#1d1d1b;}.cls-3{fill:#fff;}</style></defs><title>clickwerk - Logo - 2</title><polygon class="cls-1" points="126.15 133.12 126.15 298.46 220.63 298.46 291.5 298.46 291.5 227.6 291.5 133.12 126.15 133.12"/><path class="cls-2" d="M459.71,240H493.1v26.81H432.9V139.7h26.81Z"/><path class="cls-2" d="M524.88,165.23a16.05,16.05,0,1,1,16.05-16.05A16,16,0,0,1,524.88,165.23ZM538.2,266.84H511.4V173.25H538.2Z"/><path class="cls-2" d="M609,196a24,24,0,0,0,0,48c6.58,0,12.2-2.41,17.34-7.22l18.46,19.42A51.53,51.53,0,0,1,609,270.85a50.81,50.81,0,0,1,0-101.61c14,0,25.52,5.14,35.8,14.61l-18.46,19.42C621,198.45,615.57,196,609,196Z"/><path class="cls-2" d="M660.67,298.46V139.7h26.81v82l43.18-54.26,20.55,16.86-23.12,29.38,32.43,40.61-20.39,17-29.06-36.12Z"/><path class="cls-2" d="M807.86,212.9l33.39-76.25,33.39,76.25,21.51-49.12,24.08,10.75L874.64,278.4l-33.39-76.25L807.86,278.4,762.27,174.54l24.08-10.75Z"/><path class="cls-2" d="M975.92,257.53h4v26.65h-4a50.63,50.63,0,0,1-50.73-50.73V220a50.81,50.81,0,0,1,101.61,0v17.5H952.32A24.23,24.23,0,0,0,975.92,257.53Zm.16-61.64a24.11,24.11,0,0,0-22.15,14.77h44.15C994.22,202.15,986,195.89,976.08,195.89Z"/><path class="cls-2" d="M1073.67,159.77V175.5a48,48,0,0,1,24.08-6.26h2.73V196h-2.73A23.81,23.81,0,0,0,1073.67,220v46.87h-26.81V159.77Z"/><path class="cls-2" d="M1116,298.46V139.7h26.81v82L1186,167.47l20.55,16.86-23.12,29.38,32.43,40.61-20.39,17-29.06-36.12Z"/><rect class="cls-3" x="197.01" y="203.98" width="23.62" height="23.62"/><rect class="cls-3" x="244.26" y="251.22" width="23.62" height="23.62"/><rect class="cls-3" x="173.39" y="227.6" width="23.62" height="23.62"/><rect class="cls-3" x="149.77" y="251.22" width="23.62" height="23.62"/><polygon class="cls-3" points="173.39 180.36 173.39 156.74 149.77 156.74 149.77 180.36 149.77 203.98 149.77 227.6 173.39 227.6 173.39 203.98 173.39 180.36"/><polygon class="cls-3" points="267.48 227.6 267.48 203.98 267.48 180.36 267.48 156.74 243.86 156.74 243.86 180.36 243.86 203.98 243.86 227.6 220.63 227.6 220.63 251.22 244.26 251.22 244.26 227.6 267.48 227.6"/><path class="cls-2" d="M377,189.54a26.25,26.25,0,0,0,0,52.5c7.2,0,13.35-2.63,19-7.9l20.19,21.25a56.36,56.36,0,0,1-39.16,16,55.57,55.57,0,0,1,0-111.15c15.28,0,27.92,5.62,39.16,16l-20.19,21.25C390.15,192.17,384.18,189.54,377,189.54Z"/></svg>